<svg xmlns="http://www.w3.org/2000/svg" viewBox="0 0 750 750"><defs><style>.cls-1{fill:#fff;}.cls-2,.cls-4{fill:#10164f;}.cls-2,.cls-3{fill-rule:evenodd;}.cls-3{fill:#0d68aa;}</style></defs><title>2starsCharacter</title><g id="Слой_4" data-name="Слой 4"><path class="cls-1" d="M492.56,360c-1-21-4-48-19-70s-18-31-18-31l-114,10-11,18v81s-22-13-33,7,1,35,19,37c8,0,9,3,10,6s15,29,20,33a227.2,227.2,0,0,0,20.78,13.88L365.56,488l44,66,16,6,35-42-3.69-34.85-6.31.85-.9-13.5c2.46-.91,3.9-1.5,3.9-1.5s29-22,31-35S493.56,381,492.56,360Z"/><path id="голова" class="cls-2" d="M311.53,382.72h0c5.4,1.09,9.67,8.81,15.31,13.59C335.74,393.63,319.76,380.72,311.53,382.72ZM481.31,261.39l-1.57-.42a2.15,2.15,0,0,0,1.57.42c38.31,10.18,21.43,27.29-4.8,11.56,27.45,17.66,15.79,31,.48,17.91,25.82,49.93,34.87,167.45-35.92,188-20.62,6.22-57.15,4.15-67.89-16.25,9.46-13.22,24.8,12.9,42.37,9.66,81.83,7.85,92.8-134.46,51.58-190.42-1.92-.91-3.57-1.44-3.91-2-4.89.13-8.57-1.36-9.72-1.29,34,32.26-7.22,15.32-16.77.78,22.73,37.93-10.45,15.54-14.87-.55-21.68-7.39-60.09,3.85-78.18,13.42,6.12,30.64-8.72,51.68-9.4,79.05-2.21,4.68-3,3.81-4.78,3.22-10.26-22-46.43,13.67-26.54,29.06,9.44,9.43,18.12,3.77,23.91,4.81.22,14.19,10,30,22.56,40.08-1.52,20-30.09-25.69-26.56-32.78-30.21,5-42.67-35-20.51-49.6-17.36-22-24.86-51.19-24.3-73-12,4-13.06-7.1-8.93-10.1-8.27-4.73-.28-13.12,4.16-11.94-12.11-4.82-.25-15.73,6-11.41-10.49-10,4.6-14,9.61-9.55a16.47,16.47,0,0,0,1.36,2,4.33,4.33,0,0,0-1.36-2c-4.64-8.11,2.19-14.11,7.45-11.69,2.31-9.44,10-7,11.8-4.68-1.92-8.58,7.91-9.89,10.49-7.06.69-8.54,8-7.91,11.89-4.27a15.29,15.29,0,0,0,2.51,4.8,7.24,7.24,0,0,0-2.51-4.8c-2.54-8.31,5.38-13.92,10.9-8.38,3.71-17.12,16.83,1.06,17.41,7.15-5.71-25.08,10.92-25.82,13.31-7.88,8.55-26.48,17.68-17.13,16.5-4a53.82,53.82,0,0,0-1.74,7.35,26.59,26.59,0,0,0,1.74-7.35c6.62-21.4,21.34-9.17,12.78,4.63,6.5.58,5.4-11.59,8.84-12.7,11.66-4.36,12.71,4.25,10,9.63-.85,1-1.71,2-2.61,3.2a8.15,8.15,0,0,0,2.61-3.2c14.28-16.42,21.42-3.3,10.7,8.34,16.48-17.61,30-7.19,13.22,7.46,33.92-17.14,30.7-2.28,17.1,4.59a50.55,50.55,0,0,0-12.26,3,27.39,27.39,0,0,0,12.26-3c18.36-2.31,36.33,4,16.23,12.45,31.56.7,40.54,21,15.2,16.84C487.42,259.64,483.57,261.33,481.31,261.39Z"/><g id="тулуб"><path class="cls-3" d="M566.25,611.27c-10.71-41.49-27.63-82.48-67.87-100.68l.46-.38c-21.81-3.08-4.7-34.29-45.09-26.52,15.85,20.87-12.92,51.92-24.17,76.47-16.76-7.33-77.17-56.18-63.69-81.86-8.87,0-19.89,2.13-26.49,12.3-.32,3-4.61,13.36-5.12,3.08-37.51,12.09-85.4,29.69-105.52,69.94,0-.38-.46-.77-.46-.77,2.71,10.28-33.84,50.75-38.12,58C318.74,701.68,495.18,675.24,566.25,611.27Z"/><path class="cls-4" d="M429.58,607c10.79,6.31,15.65-16.87-2.79-6.15C426.5,602.29,425.49,604.56,429.58,607Z"/><path class="cls-4" d="M330.1,501c-65.48-6.13-114.86,74.83-148.75,113.36C202.79,636.94,241.91,503.84,330.1,501Z"/><path class="cls-4" d="M429.58,659.69c8.91,8.75,15.92-20.19-1.86-5C428,656.13,426.11,656.4,429.58,659.69Z"/><path class="cls-4" d="M454.22,502.91c5.11,2.53,2.34-21.73-4.18-24.6C446.1,483.45,442.77,499.25,454.22,502.91Z"/><path class="cls-4" d="M512.79,613.2c-19.58.22-37.89-.31-61.36,4.23.66,1.54.13,1.2,6.18,1.32C466.49,617.79,548.3,622.57,512.79,613.2Z"/><path class="cls-4" d="M562.53,609.35c.09.35.25,1.11,1.39,5,22.89-21.09-43.52-100.71-67.4-99.53C535.41,533,552.88,575.07,562.53,609.35Z"/><path class="cls-4" d="M336.61,580.92c46.88-32.64,29.32-26.06,83.21-10-3.36,29.49-2.38,63.3-4.18,96.84,18.53-3.48,5.06-76.85,6.51-101.84,20.57-1.66,57.77-37.07,79.37-4.51,3.49-.73,4.45.75,6.16-4.32-4.9-10.76-15.89-84.19-48.8-69.56,23.12-.94,28.29,36.2,37.65,60-25.63-14.69-38.53-2.28-66.94,14.22,57.62-107.71,25.78-62.92-9.3,2.69-29-14.68-42.88-27.47-83.67,5-2.48-20.74,2.64-42.17-.46-67.25,5.27-8.67,9.38-21.93,27-21.14-.78,3,.12,1.61-2.32,8.84-4.92,7.38,33.05,52.86,53.46,61.87,14.29-6-55.78-36.61-45.08-81.08-3,13.67-45.09,6.64-33.94,31.13C334.24,507.56,318,587,336.61,580.92Z"/></g></g><g id="Слой_3" data-name="Слой 3"><path class="cls-2" d="M447.3,429.81a4.54,4.54,0,0,1,5.53,5.53c-.79,3.69-4.74,5-7.9,4.74-3.69,0-7.37-.79-11.06-1.05a85,85,0,0,0-11.58,0c-3.42,0-7.11.79-10.79.26a1.43,1.43,0,0,1-.26-2.63c2.63-1.84,6.05-2.63,9.21-3.42s6.32-1.32,9.74-1.84c3.42-.26,6.58-.53,10-.53a28.4,28.4,0,0,0,4.74,0C445.72,430.6,446.51,430.07,447.3,429.81Zm-10-47.13c4.21,2.63,10.53,8.42,6.05,14.74-5.27,5.53-12.9-.79-16.85-3.69-3.42-2.37-7.37,3.42-4.21,6.06,27.38,20.27,38.44-16.59,16.85-20.27C437,379.26,436,381.89,437.3,382.68Zm-30.54-19c5.53-1.05,6.58,7.11,1.05,7.63-1.05,0-2.37.26-3.42.26,0,.26.26.79.26,1.05v1.05c.26,1.84-1.32,3.95-2.9,5a5.71,5.71,0,0,1-5.79,0,5.38,5.38,0,0,1-2.11-2.11,7.46,7.46,0,0,1-1.05-3.42c-2.63.79-5.27,1.58-7.63,2.11l.26.26v.26l-1.32-.26H382.8c-.79,0-1.32-.79-.53-1.32,2.37-2.37,5.79-3.95,9.21-5.27l3.16-1.32A38.49,38.49,0,0,1,406.76,363.72ZM452,366.09a51.75,51.75,0,0,1,11.06,0c6.32.26,3.69,9.48-1.32,7.37v1.05a4.84,4.84,0,0,1-2.11,3.69,4.53,4.53,0,0,1-4.48,0,4.46,4.46,0,0,1-2.37-3.69,7.51,7.51,0,0,1,0-3.42,2,2,0,0,1,.53-1.05c-.26,0-.79-.26-1.05-.26-3.16-.79-6.05-.53-9.21-1.05-.26,0-.26-.53,0-.79A29.9,29.9,0,0,1,452,366.09Zm-45.81-27.91c2.11-.79,4.74.53,5.79,2.37,1.32,2.11.79,4.48-.79,6.32-2.37,2.63-6.85,4.48-10,6.06H401c-3.42,1.58-6.85,3.16-10.27,4.48a80,80,0,0,1-10.53,3.16,37.74,37.74,0,0,1-5.79,1.05c-1.58.26-2.63-.26-4.21-.26-.26,0-.26-.26,0-.26,1.32-.79,2.37-2.11,3.95-2.9l4.74-2.37c3.16-1.58,6.05-3.42,9.21-5.27s6.32-3.95,9.21-6.06S402.81,339.5,406.23,338.18Zm37.91-1.84a5.09,5.09,0,0,1,6.05,3.42c.79,2.63,0,3.16,2.11,5,1.58,1.58,3.42,2.9,5,4.21l2.63,1.84c4.74,3.42,9.21,6.58,14.74,9,.53.26.26.79-.26.79a51.17,51.17,0,0,1-24.22-4.74c-3.69-1.84-7.11-3.95-9.21-7.63C438.09,344.24,438.35,337.39,444.14,336.34Z"/></g><g id="Слой_2" data-name="Слой 2"><path class="cls-1" d="M-.5-.5v750h750V-.5Zm375,675c-165.69,0-300-134.31-300-300s134.31-300,300-300,300,134.31,300,300S540.19,674.5,374.5,674.5Z"/></g></svg>