<svg width="29" height="27" viewBox="0 0 29 27" fill="none" xmlns="http://www.w3.org/2000/svg">
<path d="M12.9298 1.04712C13.026 0.743312 13.2165 0.478039 13.4736 0.289764C13.7307 0.10149 14.0411 0 14.3598 0C14.6785 0 14.9889 0.10149 15.246 0.289764C15.5031 0.478039 15.6936 0.743312 15.7898 1.04712L17.8898 7.68713C18.0171 8.09184 18.2697 8.4456 18.6113 8.69727C18.9528 8.94893 19.3656 9.08546 19.7898 9.08713H26.6598C26.9746 9.08713 27.2815 9.18619 27.5369 9.37027C27.7923 9.55435 27.9833 9.81413 28.0828 10.1128C28.1824 10.4115 28.1854 10.7339 28.0916 11.0344C27.9977 11.3349 27.8117 11.5982 27.5598 11.7871L21.9198 16.0071C21.5863 16.2559 21.3386 16.6025 21.2114 16.9986C21.0841 17.3947 21.0836 17.8207 21.2098 18.2171L23.3498 24.9971C23.4448 25.2999 23.4413 25.6249 23.34 25.9256C23.2386 26.2263 23.0445 26.487 22.7855 26.6704C22.5266 26.8538 22.2161 26.9503 21.8989 26.9461C21.5816 26.9419 21.2738 26.8372 21.0198 26.6471L15.5598 22.5571C15.2136 22.2975 14.7925 22.1571 14.3598 22.1571C13.927 22.1571 13.506 22.2975 13.1598 22.5571L7.69982 26.6471C7.44579 26.8372 7.13799 26.9419 6.82073 26.9461C6.50346 26.9503 6.19304 26.8538 5.9341 26.6704C5.67516 26.487 5.48105 26.2263 5.37966 25.9256C5.27826 25.6249 5.2748 25.2999 5.3698 24.9971L7.50981 18.2171C7.63605 17.8207 7.63549 17.3947 7.50823 16.9986C7.38096 16.6025 7.13331 16.2559 6.79979 16.0071L1.1498 11.7871C0.897938 11.5982 0.711898 11.3349 0.618028 11.0344C0.524158 10.7339 0.527231 10.4115 0.626787 10.1128C0.726343 9.81413 0.917348 9.55435 1.17275 9.37027C1.42814 9.18619 1.73497 9.08713 2.04979 9.08713H8.91982C9.34577 9.08758 9.76074 8.95201 10.1043 8.7002C10.4478 8.44838 10.702 8.09347 10.8298 7.68713L12.9298 1.04712Z" fill="#00C2FF"/>
</svg>
