<svg width="264" height="264" viewBox="0 0 264 264" fill="none" xmlns="http://www.w3.org/2000/svg">
<path d="M131.93 262.86C204.241 262.86 262.86 204.241 262.86 131.93C262.86 59.6194 204.241 1 131.93 1C59.6193 1 1 59.6194 1 131.93C1 204.241 59.6193 262.86 131.93 262.86Z" stroke="white" stroke-width="0.5" stroke-miterlimit="10"/>
<path d="M131.6 255.379C199.9 255.379 255.268 200.011 255.268 131.711C255.268 63.4109 199.9 8.04276 131.6 8.04276C63.2995 8.04276 7.93135 63.4109 7.93135 131.711C7.93135 200.011 63.2995 255.379 131.6 255.379Z" stroke="white" stroke-width="0.5" stroke-miterlimit="10"/>
<path d="M131.269 247.904C195.559 247.904 247.676 195.787 247.676 131.497C247.676 67.2075 195.559 15.0905 131.269 15.0905C66.9797 15.0905 14.8627 67.2075 14.8627 131.497C14.8627 195.787 66.9797 247.904 131.269 247.904Z" stroke="white" stroke-width="0.5" stroke-miterlimit="10"/>
<path d="M130.939 240.423C191.218 240.423 240.084 191.557 240.084 131.278C240.084 70.9991 191.218 22.1333 130.939 22.1333C70.6599 22.1333 21.794 70.9991 21.794 131.278C21.794 191.557 70.6599 240.423 130.939 240.423Z" stroke="white" stroke-width="0.5" stroke-miterlimit="10"/>
<path d="M130.612 232.946C186.881 232.946 232.495 187.331 232.495 131.063C232.495 74.7944 186.881 29.1798 130.612 29.1798C74.3438 29.1798 28.7292 74.7944 28.7292 131.063C28.7292 187.331 74.3438 232.946 130.612 232.946Z" stroke="white" stroke-width="0.5" stroke-miterlimit="10"/>
<path d="M130.282 225.465C182.54 225.465 224.903 183.102 224.903 130.844C224.903 78.586 182.54 36.2226 130.282 36.2226C78.0239 36.2226 35.6605 78.586 35.6605 130.844C35.6605 183.102 78.0239 225.465 130.282 225.465Z" stroke="white" stroke-width="0.5" stroke-miterlimit="10"/>
<path d="M129.951 217.99C178.199 217.99 217.311 178.877 217.311 130.63C217.311 82.3826 178.199 43.2703 129.951 43.2703C81.7041 43.2703 42.5919 82.3826 42.5919 130.63C42.5919 178.877 81.7041 217.99 129.951 217.99Z" stroke="white" stroke-width="0.5" stroke-miterlimit="10"/>
<path d="M129.622 210.512C173.861 210.512 209.724 174.65 209.724 130.41C209.724 86.1711 173.861 50.3081 129.622 50.3081C85.3824 50.3081 49.5194 86.1711 49.5194 130.41C49.5194 174.65 85.3824 210.512 129.622 210.512Z" stroke="white" stroke-width="0.5" stroke-miterlimit="10"/>
<path d="M129.291 203.037C169.52 203.037 202.132 170.425 202.132 130.196C202.132 89.9677 169.52 57.3559 129.291 57.3559C89.0626 57.3559 56.4508 89.9677 56.4508 130.196C56.4508 170.425 89.0626 203.037 129.291 203.037Z" stroke="white" stroke-width="0.5" stroke-miterlimit="10"/>
<path d="M128.96 195.556C165.178 195.556 194.538 166.195 194.538 129.977C194.538 93.7592 165.178 64.3986 128.96 64.3986C92.7415 64.3986 63.3809 93.7592 63.3809 129.977C63.3809 166.195 92.7415 195.556 128.96 195.556Z" stroke="white" stroke-width="0.5" stroke-miterlimit="10"/>
</svg>
