<svg width="147" height="146" viewBox="0 0 147 146" fill="none" xmlns="http://www.w3.org/2000/svg">
<path d="M100.649 70.4815C100.406 65.3855 99.678 58.8335 96.038 53.4948C92.398 48.1562 91.67 45.9722 91.67 45.9722L64.006 48.3988L61.3367 52.7668V72.4228C61.3367 72.4228 55.998 69.2682 53.3287 74.1215C50.6594 78.9748 53.5714 82.6148 57.9394 83.1002C59.8807 83.1002 60.1234 83.8282 60.366 84.5562C60.6087 85.2842 64.006 91.5935 65.2194 92.5642C65.859 93.076 67.8482 94.4873 70.2615 95.9324L69.83 101.543L80.5074 117.559L94.0758 122.133L92.5771 108.661L90.2383 97.2962C90.8348 97.0756 91.1847 96.9322 91.1847 96.9322C91.1847 96.9322 98.222 91.5935 98.7074 88.4388C99.1927 85.2842 100.891 75.5775 100.649 70.4815Z" fill="white"/>
<path d="M118.531 131.457C115.933 121.389 111.826 111.442 102.061 107.024L102.174 106.931C96.8804 106.184 101.033 98.6107 91.2321 100.497C95.0779 105.562 88.0981 113.097 85.3664 119.055C81.3 117.277 66.6386 105.421 69.9117 99.1909C67.7602 99.2014 65.085 99.7071 63.4825 102.175C63.4043 102.907 62.3647 105.418 62.241 102.921C53.1385 105.854 41.5167 110.127 36.6345 119.895C36.6345 119.801 36.5217 119.708 36.5217 119.708C37.1803 122.203 28.3094 132.023 27.2715 133.789C58.4692 153.397 101.285 146.979 118.531 131.457Z" fill="#189EFF"/>
<path d="M56.7207 75.9959C58.0311 76.2601 59.0666 78.1325 60.4369 79.293C62.5955 78.6431 58.7159 75.5088 56.7207 75.9959ZM97.9187 46.5529C97.7913 46.5189 97.671 46.4844 97.5387 46.4514C97.6317 46.5354 97.762 46.5572 97.9187 46.5529C107.215 49.0235 103.119 53.1762 96.7547 49.3574C103.415 53.6421 100.587 56.8696 96.8711 53.7033C103.137 65.8194 105.332 94.3378 88.1555 99.3351C83.1517 100.844 74.2876 100.342 71.6799 95.3925C73.9751 92.1834 77.6988 98.5233 81.9627 97.7369C101.82 99.6411 104.482 65.1074 94.4806 51.5283C94.0137 51.3084 93.6155 51.1788 93.5323 51.0454C92.3466 51.0774 91.4531 50.7163 91.1731 50.7328C99.4315 58.5615 89.4203 54.4505 87.1026 50.9221C92.6191 60.1257 84.5665 54.6922 83.4951 50.7881C78.2348 48.9958 68.9121 51.7219 64.5244 54.0452C66.01 61.4793 62.4086 66.5848 62.2436 73.2287C61.7063 74.3634 61.511 74.1545 61.0841 74.0101C58.5951 68.6647 49.8176 77.3267 54.643 81.0615C56.9348 83.3504 59.0401 81.9757 60.444 82.228C60.4971 85.672 62.8663 89.4978 65.9195 91.9534C65.5516 96.8176 58.6164 85.7186 59.475 83.9985C52.1433 85.2119 49.1204 75.4974 54.4981 71.963C50.2852 66.6348 48.4647 59.5402 48.6009 54.2505C45.7008 55.2209 45.4319 52.5281 46.4329 51.8003C44.4258 50.6527 46.3647 48.617 47.4424 48.9024C44.5027 47.732 47.3817 45.0852 48.8986 46.1338C46.3526 43.7042 50.0161 42.7479 51.2309 43.8178C51.3238 43.9799 51.4291 44.1442 51.5616 44.3128C51.5036 44.1131 51.3833 43.952 51.2309 43.8178C50.1042 41.8488 51.7623 40.3925 53.0385 40.9808C53.5986 38.6912 55.4589 39.2821 55.9022 39.8444C55.4373 37.7623 57.8222 37.4434 58.4485 38.1311C58.6164 36.0575 60.3789 36.2107 61.3348 37.0947C61.4481 37.466 61.6374 37.8567 61.9432 38.2595C61.9201 37.8217 61.6782 37.4124 61.3348 37.0947C60.7189 35.0781 62.6406 33.717 63.9794 35.0607C64.8789 30.9052 68.0639 35.3186 68.2052 36.796C66.8193 30.7087 70.8561 30.5303 71.4363 34.883C73.5108 28.4575 75.7276 30.7254 75.4405 33.9073C75.2799 34.4268 75.1321 34.9998 75.0188 35.6914C75.2534 35.0976 75.3881 34.4872 75.4405 33.9073C77.0463 28.7149 80.62 31.6828 78.542 35.0303C80.1206 35.1711 79.8534 32.2173 80.6867 31.9482C83.5157 30.8909 83.7703 32.9798 83.1243 34.2851C82.9188 34.5215 82.7091 34.7741 82.4919 35.0626C82.7433 34.8964 82.961 34.6146 83.1243 34.2851C86.5906 30.2998 88.323 33.4855 85.7196 36.3097C89.7195 32.0361 92.9967 34.5651 88.9267 38.1202C97.1585 33.9599 96.3776 37.5674 93.0766 39.2331C92.0525 39.3622 91.0236 39.6012 90.1005 39.9696C91.1884 39.971 92.2168 39.667 93.0766 39.2331C97.5319 38.6713 101.894 40.194 97.0153 42.255C104.675 42.4256 106.854 47.3442 100.704 46.3413C99.4014 46.128 98.4686 46.5373 97.9187 46.5529Z" fill="#10164F"/>
<path d="M85.3665 130.431C87.9851 131.962 89.164 126.338 84.689 128.938C84.6179 129.276 84.3738 129.827 85.3665 130.431Z" fill="#10164F"/>
<path d="M61.2265 104.694C45.3365 103.206 33.3541 122.851 25.1289 132.203C30.3324 137.687 39.8246 105.386 61.2265 104.694Z" fill="#10164F"/>
<path d="M85.367 143.207C87.5297 145.331 89.23 138.307 84.9152 141.994C84.9875 142.343 84.5252 142.408 85.367 143.207Z" fill="#10164F"/>
<path d="M91.3454 105.16C92.5852 105.774 91.9132 99.8862 90.3306 99.1914C89.3764 100.439 88.5678 104.274 91.3454 105.16Z" fill="#10164F"/>
<path d="M105.559 131.923C100.807 131.977 96.3636 131.848 90.6689 132.949C90.8296 133.323 90.7012 133.24 92.1681 133.27C94.3237 133.039 114.178 134.198 105.559 131.923Z" fill="#10164F"/>
<path d="M117.629 130.991C117.65 131.076 117.69 131.261 117.968 132.203C123.523 127.086 107.407 107.764 101.611 108.052C111.048 112.471 115.288 122.671 117.629 130.991Z" fill="#10164F"/>
<path d="M62.8061 124.09C74.1823 116.171 69.9211 117.766 82.9982 121.666C82.1816 128.823 82.4209 137.026 81.9829 145.166C86.4785 144.321 83.2117 126.517 83.5624 120.454C88.5543 120.051 97.58 111.459 102.824 119.359C103.67 119.181 103.903 119.542 104.319 118.31C103.129 115.7 100.463 97.8785 92.4755 101.429C98.0852 101.202 99.3391 110.215 101.611 115.978C95.3909 112.413 92.2605 115.425 85.3671 119.428C99.3503 93.2904 91.6225 104.159 83.1108 120.081C76.0688 116.518 72.706 113.414 62.8061 121.293C62.2043 116.259 63.4453 111.06 62.6933 104.974C63.9709 102.869 64.9688 99.6517 69.2358 99.8448C69.0473 100.577 69.2654 100.235 68.6719 101.99C67.4772 103.78 76.6925 114.816 81.6443 117.003C85.112 115.536 68.1089 108.119 70.7042 97.3271C69.9694 100.643 59.7621 98.9389 62.4676 104.88C62.2308 106.29 58.2901 125.558 62.8061 124.09Z" fill="#10164F"/>
<path d="M82.9418 90.0722C81.6387 90.2188 78.5845 85.3446 82.3812 86.8899C83.631 88.8836 86.7966 89.2165 88.8272 86.563C90.8057 87.0993 87.3404 91.8781 82.9418 90.0722Z" fill="#10164F"/>
<path d="M86.6955 77.0026C88.4485 77.5998 89.293 82.5582 85.4028 80.665C84.486 79.2422 80.8358 79.1131 83.9262 81.8137C91.8058 86.1279 90.2911 73.8989 86.6955 77.0026Z" fill="#10164F"/>
<path d="M73.9646 73.262C75.7819 70.3371 77.4459 73.6706 75.7644 76.4885C74.0917 78.1466 73.3181 75.2227 73.9646 73.262Z" fill="#10164F"/>
<path d="M90.7938 72.9762C92.9271 70.6733 94.436 77.8152 90.778 76.4752C90.3553 75.8392 89.8197 74.3007 90.7938 72.9762C90.7894 73.0888 90.7938 72.9762 90.7938 72.9762Z" fill="#10164F"/>
<path d="M77.058 62.7646C84.8452 63.3386 74.4967 65.1209 70.9385 66.491C72.1523 64.6143 73.8983 63.2012 77.058 62.7646Z" fill="#10164F"/>
<path d="M90.5815 63.3737C92.0397 63.885 96.2577 65.0685 96.5283 67.4299C95.2283 67.6563 93.9565 65.7941 90.3944 65.3995C89.3691 65.5463 88.8124 63.134 90.5815 63.3737Z" fill="#10164F"/>
<path fill-rule="evenodd" clip-rule="evenodd" d="M73.5 146C114.093 146 147 113.317 147 73V146H73.5ZM0 73C0 113.317 32.9071 146 73.5 146H0V73ZM73.5 0C32.9071 0 0 32.6832 0 73V0H73.5ZM73.5 0H147V73C147 32.6832 114.093 0 73.5 0Z" fill="white"/>
</svg>
