<svg width="28" height="27" viewBox="0 0 28 27" fill="none" xmlns="http://www.w3.org/2000/svg">
<path d="M12.3798 1.04712C12.476 0.743312 12.6665 0.478039 12.9236 0.289764C13.1807 0.10149 13.4911 0 13.8098 0C14.1285 0 14.4389 0.10149 14.696 0.289764C14.9531 0.478039 15.1436 0.743312 15.2398 1.04712L17.3398 7.68713C17.4676 8.09347 17.7218 8.44838 18.0653 8.7002C18.4089 8.95201 18.8238 9.08758 19.2498 9.08713H26.1198C26.4346 9.08713 26.7415 9.18619 26.9969 9.37027C27.2523 9.55435 27.4433 9.81413 27.5428 10.1128C27.6424 10.4115 27.6454 10.7339 27.5516 11.0344C27.4577 11.3349 27.2717 11.5982 27.0198 11.7871L21.3698 16.0071C21.0363 16.2559 20.7886 16.6025 20.6614 16.9986C20.5341 17.3947 20.5336 17.8207 20.6598 18.2171L22.7998 24.9971C22.8948 25.2999 22.8914 25.6249 22.79 25.9256C22.6886 26.2263 22.4944 26.487 22.2355 26.6704C21.9766 26.8538 21.6661 26.9503 21.3489 26.9461C21.0316 26.9419 20.7238 26.8372 20.4698 26.6471L14.9998 22.5571C14.6545 22.2998 14.2354 22.1609 13.8048 22.1609C13.3742 22.1609 12.9551 22.2998 12.6098 22.5571L7.1398 26.6471C6.88578 26.8372 6.57801 26.9419 6.26074 26.9461C5.94348 26.9503 5.63305 26.8538 5.37411 26.6704C5.11517 26.487 4.92105 26.2263 4.81965 25.9256C4.71825 25.6249 4.7148 25.2999 4.8098 24.9971L6.9998 18.2171C7.12604 17.8207 7.12549 17.3947 6.99822 16.9986C6.87096 16.6025 6.62332 16.2559 6.2898 16.0071L0.649804 11.7871C0.397945 11.5982 0.211906 11.3349 0.118035 11.0344C0.0241651 10.7339 0.0272227 10.4115 0.126779 10.1128C0.226335 9.81413 0.41734 9.55435 0.672738 9.37027C0.928136 9.18619 1.23498 9.08713 1.54981 9.08713H8.4198C8.84576 9.08758 9.26074 8.95201 9.60429 8.7002C9.94784 8.44838 10.202 8.09347 10.3298 7.68713L12.3798 1.04712Z" fill="#189EFF"/>
</svg>
