<svg width="107" height="107" viewBox="0 0 107 107" fill="none" xmlns="http://www.w3.org/2000/svg">
<path fill-rule="evenodd" clip-rule="evenodd" d="M53.8197 1.25C24.7863 1.25 1.25 24.7863 1.25 53.8197C1.25 82.8532 24.7863 106.389 53.8197 106.389C82.8532 106.389 106.389 82.8532 106.389 53.8197C106.389 24.7863 82.8532 1.25 53.8197 1.25ZM0.75 53.8197C0.75 24.5101 24.5101 0.75 53.8197 0.75C83.1293 0.75 106.889 24.5101 106.889 53.8197C106.889 83.1293 83.1293 106.889 53.8197 106.889C24.5101 106.889 0.75 83.1293 0.75 53.8197Z" fill="white"/>
<path fill-rule="evenodd" clip-rule="evenodd" d="M53.5376 7.26811C27.9301 7.26811 7.17099 28.0272 7.17099 53.6347C7.17099 79.2423 27.9301 100.001 53.5376 100.001C79.1452 100.001 99.9043 79.2423 99.9043 53.6347C99.9043 28.0272 79.1452 7.26811 53.5376 7.26811ZM6.67099 53.6347C6.67099 27.751 27.6539 6.76811 53.5376 6.76811C79.4214 6.76811 100.404 27.751 100.404 53.6347C100.404 79.5185 79.4214 100.501 53.5376 100.501C27.6539 100.501 6.67099 79.5185 6.67099 53.6347Z" fill="white"/>
<path fill-rule="evenodd" clip-rule="evenodd" d="M53.2573 13.2856C31.0756 13.2856 13.0938 31.2675 13.0938 53.4492C13.0938 75.6309 31.0756 93.6127 53.2573 93.6127C75.439 93.6127 93.4208 75.6309 93.4208 53.4492C93.4208 31.2675 75.439 13.2856 53.2573 13.2856ZM12.5938 53.4492C12.5938 30.9913 30.7994 12.7856 53.2573 12.7856C75.7152 12.7856 93.9208 30.9913 93.9208 53.4492C93.9208 75.907 75.7152 94.1127 53.2573 94.1127C30.7994 94.1127 12.5938 75.907 12.5938 53.4492Z" fill="white"/>
<path fill-rule="evenodd" clip-rule="evenodd" d="M52.9753 19.302C34.2184 19.302 19.013 34.5074 19.013 53.2643C19.013 72.0211 34.2184 87.2266 52.9753 87.2266C71.7321 87.2266 86.9376 72.0211 86.9376 53.2643C86.9376 34.5074 71.7321 19.302 52.9753 19.302ZM18.513 53.2643C18.513 34.2313 33.9423 18.802 52.9753 18.802C72.0083 18.802 87.4376 34.2313 87.4376 53.2643C87.4376 72.2973 72.0083 87.7266 52.9753 87.7266C33.9423 87.7266 18.513 72.2973 18.513 53.2643Z" fill="white"/>
<path fill-rule="evenodd" clip-rule="evenodd" d="M52.6926 25.3201C37.3616 25.3201 24.9334 37.7483 24.9334 53.0793C24.9334 68.4103 37.3616 80.8385 52.6926 80.8385C68.0236 80.8385 80.4518 68.4103 80.4518 53.0793C80.4518 37.7483 68.0236 25.3201 52.6926 25.3201ZM24.4334 53.0793C24.4334 37.4721 37.0855 24.8201 52.6926 24.8201C68.2997 24.8201 80.9518 37.4721 80.9518 53.0793C80.9518 68.6864 68.2997 81.3385 52.6926 81.3385C37.0855 81.3385 24.4334 68.6864 24.4334 53.0793Z" fill="white"/>
</svg>
